<svg height="511pt" viewBox="1 -12 511.99897 511" width="511pt" xmlns="http://www.w3.org/2000/svg"><path d="m355.101562 133.28125h-41.207031v-65.941406c0-14.132813-11.5-25.632813-25.632812-25.632813h-64.523438c-14.132812 0-25.632812 11.5-25.632812 25.632813v65.941406h-41.207031v-65.941406c0-36.855469 29.984374-66.839844 66.839843-66.839844h64.523438c36.855469 0 66.839843 29.984375 66.839843 66.839844zm0 0" fill="#6ee6db"/><path d="m156.898438 69.066406h41.207031v64.214844h-41.207031zm0 0" fill="#26bed3"/><path d="m313.894531 69.066406h41.207031v64.214844h-41.207031zm0 0" fill="#26bed3"/><path d="m478.324219 99.972656h-444.648438c-18.597656 0-33.675781 15.078125-33.675781 33.675782v306.601562c0 18.597656 15.078125 33.675781 33.675781 33.675781h444.644531c18.601563 0 33.679688-15.078125 33.679688-33.675781v-306.601562c0-18.597657-15.078125-33.675782-33.675781-33.675782zm0 0" fill="#ff8892"/><path d="m34.511719 99.972656v373.953125h105.078125v-373.953125zm0 0" fill="#ff5754"/><path d="m99.921875 86.058594h-25.742187c-7.683594 0-13.914063 6.230468-13.914063 13.914062v373.953125c0 7.6875 6.230469 13.914063 13.914063 13.914063h25.742187c7.683594 0 13.914063-6.226563 13.914063-13.914063v-373.953125c0-7.683594-6.230469-13.914062-13.914063-13.914062zm0 0" fill="#ffe967"/><path d="m372.410156 99.972656v373.953125h105.078125v-373.953125zm0 0" fill="#ff5754"/><path d="m412.078125 86.058594h25.742187c7.683594 0 13.914063 6.230468 13.914063 13.914062v373.953125c0 7.6875-6.230469 13.914063-13.914063 13.914063h-25.742187c-7.683594 0-13.914063-6.226563-13.914063-13.914063v-373.953125c0-7.683594 6.230469-13.914062 13.914063-13.914062zm0 0" fill="#ffe967"/><g fill="#2d3c50"><path d="m312.894531 163.648438c-1.976562 0-3.953125-.753907-5.464843-2.261719-3.015626-3.015625-3.015626-7.910157 0-10.925781l55.953124-55.953126c3.019532-3.015624 7.910157-3.015624 10.925782 0 3.019531 3.019532 3.019531 7.910157 0 10.925782l-55.949219 55.953125c-1.507813 1.507812-3.488281 2.261719-5.464844 2.261719zm0 0"/><path d="m170.320312 374.683594c-4.265624 0-7.726562-3.460938-7.726562-7.726563v-15.503906c0-4.269531 3.460938-7.726563 7.726562-7.726563 4.265626 0 7.726563 3.457032 7.726563 7.726563v15.503906c0 4.265625-3.460937 7.726563-7.726563 7.726563zm0 0"/><path d="m341.679688 374.683594c-4.265626 0-7.726563-3.460938-7.726563-7.726563v-15.503906c0-4.269531 3.460937-7.726563 7.726563-7.726563 4.269531 0 7.726562 3.457032 7.726562 7.726563v15.503906c0 4.265625-3.460938 7.726563-7.726562 7.726563zm0 0"/><path d="m256 382.960938c-10.472656 0-20.300781-4.371094-26.964844-11.996094-2.808594-3.214844-2.480468-8.09375.734375-10.902344 3.210938-2.808594 8.09375-2.480469 10.902344.730469 3.726563 4.269531 9.316406 6.714843 15.328125 6.714843s11.601562-2.445312 15.332031-6.714843c2.804688-3.210938 7.6875-3.539063 10.898438-.730469 3.214843 2.808594 3.542969 7.6875.734375 10.902344-6.664063 7.625-16.492188 11.996094-26.964844 11.996094zm0 0"/></g><path d="m318.144531 136.378906-52.476562.109375c-3.773438.007813-7.390625 1.511719-10.058594 4.179688l-48.417969 48.417969c-5.570312 5.574218-5.570312 14.605468 0 20.175781l52.367188 52.367187c5.570312 5.570313 14.601562 5.570313 20.175781 0l48.417969-48.417968c2.667968-2.667969 4.171875-6.285157 4.179687-10.058594l.109375-52.476563c.015625-7.902343-6.394531-14.3125-14.296875-14.296875zm-20.90625 59.304688c-6.65625 6.652344-17.445312 6.652344-24.101562 0-6.652344-6.65625-6.652344-17.445313 0-24.101563 6.65625-6.65625 17.445312-6.65625 24.101562 0 6.652344 6.65625 6.652344 17.445313 0 24.101563zm0 0" fill="#e5e8ec"/></svg>