<svg width="52" height="40" viewBox="0 0 52 40" fill="none" xmlns="http://www.w3.org/2000/svg"><path d="M42.892 3.191c-9.378.061-9.452 7.498-7.39 12.798h3.547c.59.001 1.154.229 1.571.633.417.405.651.954.652 1.527v4.001c.517.145 1.051.22 1.589.226 1.414 0 3.202-.581 4.626-1.89 3.695-3.399 8.357-17.379-4.595-17.295zm4.585 14.688l-1.575.322a.82.82 0 01-.616-.097.787.787 0 01-.356-.497.754.754 0 01.12-.594.787.787 0 01.525-.329l1.574-.321a.816.816 0 01.586.12.774.774 0 01.335.483.757.757 0 01-.106.573.797.797 0 01-.487.34zm-1.646-3.022a5.133 5.133 0 01-2.924.941 5.29 5.29 0 01-2.95-.973c-1.36-.993-2.853-4.173-2.378-6.616.104-.493.381-.935.784-1.25a2.27 2.27 0 011.422-.48h6.25c1.069 0 2.021.721 2.213 1.743.454 2.457-1.047 5.65-2.417 6.635z" fill="#BDE0DC"/><path d="M45.738 17.46a.553.553 0 01-.366-.134.517.517 0 01-.078-.705.545.545 0 01.327-.207l1.576-.321a.56.56 0 01.408.074.535.535 0 01.235.333.514.514 0 01-.077.398.534.534 0 01-.343.228l-1.575.322a.632.632 0 01-.107.012z" fill="#04A991"/><path d="M21.596 31.232v4.866c0 .282.115.552.32.75.204.2.482.312.771.312h14.4c.29 0 .567-.112.772-.311.205-.2.32-.47.32-.75v-4.867H21.596zm3.89 2.716h-2.794a.597.597 0 01-.415-.167.563.563 0 010-.807.596.596 0 01.415-.167h2.795c.155 0 .305.06.415.167a.563.563 0 010 .807.597.597 0 01-.415.167zm11.602 0h-2.795a.597.597 0 01-.415-.167.563.563 0 010-.807.596.596 0 01.415-.167h2.795c.155 0 .305.06.415.167a.563.563 0 010 .807.597.597 0 01-.415.167z" fill="#BDE0DC"/><path d="M26.065 33.468h-2.794a.552.552 0 01-.385-.155.52.52 0 010-.747c.102-.099.24-.155.385-.155h2.794c.144 0 .283.056.385.155a.521.521 0 010 .747.552.552 0 01-.385.155zM37.667 33.468h-2.794a.552.552 0 01-.385-.155.521.521 0 010-.747c.102-.099.24-.155.385-.155h2.794c.145 0 .283.056.385.155a.52.52 0 010 .747.552.552 0 01-.385.155zM43.825 24.61h5.84l.016.029.698 1.358a.478.478 0 00.284.239.503.503 0 00.525-.14.474.474 0 00.119-.347.466.466 0 00-.051-.18l-2.817-5.485a.455.455 0 00-.102-.134l-.036-.034.032-.036c1.145-1.292 2.223-3.335 2.886-5.464.91-2.929.943-5.674.092-7.73a6.415 6.415 0 00-2.846-3.2 8.17 8.17 0 00-1.52-.657l-.07-.024L48.39.845a.462.462 0 00-.135-.69.5.5 0 00-.26-.07h-10.15a.5.5 0 00-.258.071.481.481 0 00-.18.192.464.464 0 00.045.499l1.54 1.995-.07.021a8.236 8.236 0 00-1.563.696 6.526 6.526 0 00-2.82 3.23c-.839 2.053-.816 4.777.068 7.67.151.494.327.99.524 1.47h1.059a16.924 16.924 0 01-.642-1.748c-.822-2.688-.856-5.191-.098-7.045 1.048-2.57 3.556-3.886 7.447-3.91h.116c3.854 0 6.339 1.281 7.386 3.808.767 1.856.724 4.377-.117 7.099-.711 2.289-1.938 4.473-3.125 5.564-1.418 1.306-3.141 1.767-4.283 1.767a5.729 5.729 0 01-1.548-.234v.993c.501.125 1.017.19 1.534.194h.016c1.615 0 3.317-.648 4.672-1.779l.053-.044 1.576 3.063H43.82l.005.953zM39.989 2.575l-.018-.036a.43.43 0 00-.046-.07l-1.102-1.431h8.191L45.91 2.469a.319.319 0 00-.03.046l-.02.033-.038-.009c-.932-.179-1.88-.266-2.831-.26h-.101c-.961 0-1.92.097-2.86.288l-.04.008z" fill="#01AA92"/><path d="M37.666 17.234h-14.4c-.575.001-1.127.223-1.533.618a2.08 2.08 0 00-.636 1.49V35.66a2.06 2.06 0 00.582 1.424l.02.023-.01.03a.455.455 0 00-.032.155v1.594c0 .27.11.53.307.72.196.192.463.299.74.299H25.5c.278 0 .545-.108.741-.299.197-.19.307-.45.307-.72v-1.118h7.823v1.118c0 .27.11.53.307.72.196.192.463.299.74.299h2.795c.278 0 .545-.108.741-.299.197-.19.307-.45.307-.72v-1.594a.44.44 0 00-.032-.155l-.01-.03.021-.023a2.06 2.06 0 00.583-1.424V19.343c-.001-.557-.228-1.09-.632-1.485a2.204 2.204 0 00-1.524-.624zm-15.588 4.218h7.898v8.292h-7.898v-8.292zm3.494 17.433a.066.066 0 01-.02.048.067.067 0 01-.05.02h-2.796a.071.071 0 01-.05-.02.067.067 0 01-.02-.048V37.67l.068.018c.182.05.37.078.56.08h2.309l-.002 1.118zm12.72 0a.064.064 0 01-.02.048.067.067 0 01-.048.02h-2.795a.07.07 0 01-.049-.02.067.067 0 01-.02-.048v-1.118h2.307c.19-.002.38-.03.563-.08l.066-.018-.003 1.216zm.56-3.226c0 .306-.125.6-.348.817a1.208 1.208 0 01-.84.339H23.266c-.315-.001-.617-.123-.84-.34a1.14 1.14 0 01-.348-.816v-4.962h16.777l-.002 4.962zm0-5.915h-7.895v-8.292h7.898l-.002 8.292zm0-9.246H22.079v-1.155c0-.306.126-.6.349-.816.222-.216.524-.338.839-.339h14.4c.315 0 .617.122.84.339.223.216.348.51.349.816l-.002 1.155z" fill="#01AA92"/><path d="M18.398 15.248l6.055-5.063s2.049-.835 1.318-1.698c-.877-1.035-4.076.134-5.898 1.584-2.162 1.736-13.46 10.797-13.46 10.797l-4.83-.07.397.467s2.157.606 4.1 1.057c-1.08.864.045 2.31 1.184 1.399l6.709-5.397" fill="#BDE0DC"/><path d="M17.792 15.33l-.072 5.152-.61 6.312-1.425-.229-.606-4.49-1.361-3.518M14.092 12.475l-9.819-.444-.563 1.235 6.433 2.531" fill="#BDE0DC"/><path d="M23.006 5.99a10.886 10.886 0 00-3.467 1.818l-3.196 2.559-1.887 1.515-.051-.016a.424.424 0 00-.095-.023l-9.817-.442h-.022a.501.501 0 00-.267.077.481.481 0 00-.181.206l-.565 1.233a.466.466 0 00-.007.373.5.5 0 00.275.26l5.799 2.283-.069.055-3.237 2.594h-.02l-4.628-.066h-.006a.509.509 0 00-.417.226L.104 20.256a.468.468 0 00.238.698l.034.014c.69.254 3.073 1.131 4.832 1.62l.056.015-.02.053a1.31 1.31 0 00.117 1.198c.114.178.269.327.452.436.184.108.39.175.605.192a1.66 1.66 0 001.156-.396l2.185-1.758 3.974-3.197.063-.052.717 2.456.757 5.619a.466.466 0 00.205.33.497.497 0 00.39.074l1.354-.302a.492.492 0 00.251-.14.47.47 0 00.125-.254l1.243-8.034a.399.399 0 00.005-.065l.053-3.775.029-.015.035-.014a.386.386 0 00.072-.04L25.32 9.89l.072-.056c.335-.27 1.128-1.002 1.247-1.977a2.006 2.006 0 00-.085-.84 2.045 2.045 0 00-.426-.737c-.38-.448-1.23-.864-3.122-.29zM4.561 12.853l.222-.488h.036l8.548.386-.107.086-2.875 2.307-.029-.012-5.795-2.28zm20.158-3.713l-.029-.043.023.048-5.796 4.64v-.17a.466.466 0 00-.138-.342.493.493 0 00-.346-.145h-.008a.504.504 0 00-.348.138.477.477 0 00-.145.337l-.072 5.115-1.188 7.684-.504.114-.007-.056-.675-5.072a.455.455 0 00-.013-.069l-1.206-4.129a.468.468 0 00-.232-.286.504.504 0 00-.373-.043.49.49 0 00-.296.225.465.465 0 00-.043.363l.185.634-.027.021-4.45 3.575-2.08 1.675c-.284.226-.554.24-.723.046a.409.409 0 01-.095-.303.592.592 0 01.256-.406.464.464 0 00.037-.704.495.495 0 00-.234-.128c-1.446-.34-3.894-1.205-4.879-1.564l-.06-.023.582-.898h.028l4.523.064h.008a.503.503 0 00.31-.107l.016-.012c.456-.367 11.26-9.03 13.442-10.778a9.766 9.766 0 013.098-1.63c1.06-.325 1.848-.333 2.11-.024a1.08 1.08 0 01.295.857c-.074.62-.708 1.217-.946 1.396z" fill="#01AA92"/></svg>