<svg width="52" height="40" viewBox="0 0 52 40" fill="none" xmlns="http://www.w3.org/2000/svg"><path d="M25.85 7.593H11.385v23.178H8V7.593H3.585c-.36 0-.717.069-1.05.203a2.75 2.75 0 00-.89.577 2.662 2.662 0 00-.595.866c-.138.323-.21.67-.21 1.02v18.995c0 .35.072.697.21 1.02.138.324.34.618.595.866.254.247.557.444.89.578.333.134.69.202 1.05.202h13.286l8.974-9.166.005-15.161zM33.173 7.593h-3.028v10.774l4.554-4.655V9.079c0-.394-.16-.771-.447-1.05a1.552 1.552 0 00-1.08-.436z" fill="#BDE0DC"/><path d="M33.903 5.057h-9.116V2.735c0-.648-.266-1.27-.738-1.728a2.555 2.555 0 00-1.777-.716h-6.91c-.667 0-1.306.259-1.777.717a2.412 2.412 0 00-.737 1.727v2.322H3.732a3.558 3.558 0 00-2.473 1A3.36 3.36 0 00.233 8.46v20.017c0 .902.37 1.768 1.027 2.406a3.558 3.558 0 002.475.998h16.443a.629.629 0 00.45-.165.594.594 0 00.19-.43.582.582 0 00-.19-.43.615.615 0 00-.45-.165h-7.784V6.246h12.847v16.66a.58.58 0 00.17.438.615.615 0 00.442.183.63.63 0 00.442-.184.594.594 0 00.17-.437V6.246h2.731v12.62a.58.58 0 00.17.438.611.611 0 00.442.183.628.628 0 00.443-.183.592.592 0 00.17-.438V6.246h3.482c.604.001 1.183.235 1.61.65.428.415.668.978.669 1.565v3.638a.579.579 0 00.17.438.61.61 0 00.442.183.627.627 0 00.442-.183.592.592 0 00.17-.438V8.461a3.36 3.36 0 00-1.028-2.406 3.559 3.559 0 00-2.475-.998zM14.072 2.735c0-.333.136-.652.378-.887a1.31 1.31 0 01.912-.368h6.91c.342 0 .67.133.912.368s.379.554.379.887v2.322h-9.491V2.735zM1.453 28.478V8.46c0-.587.241-1.15.668-1.565a2.315 2.315 0 011.61-.65H7.22V30.69H3.732a2.315 2.315 0 01-1.61-.648 2.186 2.186 0 01-.669-1.563zm9.717 2.214H8.438V6.246h2.732v24.447zM39.032 22.642a.62.62 0 01-.432-.174l-1.172-1.14a.593.593 0 01-.18-.42.579.579 0 01.18-.42.614.614 0 01.432-.174.63.63 0 01.433.174l1.172 1.14a.578.578 0 01.135.65.598.598 0 01-.226.268.625.625 0 01-.342.1v-.004zM41.964 25.493a.621.621 0 01-.432-.174l-1.172-1.14a.586.586 0 01.013-.828.62.62 0 01.852-.014l1.172 1.14a.58.58 0 01.135.65.6.6 0 01-.226.27.626.626 0 01-.342.1v-.004z" fill="#01AA92"/><path d="M50.98 19.369l-7.33-7.124a2.558 2.558 0 00-.828-.538 2.616 2.616 0 00-1.954 0c-.31.125-.59.308-.828.538L23.49 28.332a2.447 2.447 0 00-.746 1.754c0 .658.268 1.289.747 1.754l7.33 7.13c.237.23.518.412.828.537a2.614 2.614 0 002.781-.538l16.55-16.097a2.444 2.444 0 00.746-1.752c0-.657-.268-1.287-.746-1.752zm-.865 2.662l-5.118 4.974-.84-.817a.62.62 0 00-.865 0 .586.586 0 000 .84l.84.817L33.56 38.12c-.248.241-.585.376-.936.376-.351 0-.688-.135-.937-.376l-7.336-7.129a1.273 1.273 0 01-.387-.91c0-.342.14-.67.387-.912l10.581-10.27.74.718a.622.622 0 00.852-.012.587.587 0 00.014-.828l-.74-.719 5.117-4.973c.249-.242.586-.377.937-.377.352 0 .689.135.938.377l7.33 7.129c.246.242.384.57.383.91 0 .34-.14.667-.388.908z" fill="#01AA92"/><path d="M28.695 30.415a.625.625 0 01-.342-.1.6.6 0 01-.226-.268.58.58 0 01.136-.65l6.235-6.06a.614.614 0 01.433-.174.63.63 0 01.432.174.593.593 0 01.18.42.579.579 0 01-.18.421l-6.235 6.06a.608.608 0 01-.433.177zM33.033 34.627a.626.626 0 01-.342-.1.6.6 0 01-.227-.268.58.58 0 01.136-.65l4.494-4.367a.624.624 0 01.869.003.589.589 0 01-.004.844l-4.494 4.367a.607.607 0 01-.432.171zM30.849 32.508a.625.625 0 01-.342-.1.598.598 0 01-.227-.268.58.58 0 01.135-.65l6.236-6.06a.62.62 0 01.865 0 .586.586 0 010 .84l-6.235 6.06a.609.609 0 01-.432.178z" fill="#01AA92"/></svg>