<svg width="52" height="40" viewBox="0 0 52 40" fill="none" xmlns="http://www.w3.org/2000/svg"><path d="M38.565 1.291H9.438v3.607h29.127V1.29z" fill="#BDE0DC"/><path d="M25.08 26.84c-4.916 0-8.916-3.394-8.916-7.565s4-7.566 8.916-7.566c2.964 0 5.726 1.245 7.387 3.327a.534.534 0 01.124.402.53.53 0 01-.211.367.561.561 0 01-.626.035.55.55 0 01-.163-.145c-1.454-1.822-3.887-2.908-6.51-2.908-4.31 0-7.802 2.91-7.802 6.489 0 3.578 3.502 6.488 7.801 6.488 2.742 0 5.24-1.164 6.669-3.114a.55.55 0 01.36-.218.57.57 0 01.413.093.545.545 0 01.225.35.524.524 0 01-.096.401c-1.64 2.232-4.472 3.565-7.57 3.565z" fill="#01AA92"/><path d="M27.433 21.774l-3.304-2.356 3.335-2.731a.544.544 0 00.195-.367.523.523 0 00-.129-.393.552.552 0 00-.377-.19.568.568 0 00-.404.126l-2.962 2.426v-2.014a.531.531 0 00-.163-.381.563.563 0 00-.784 0 .531.531 0 00-.162.38v5.935c0 .143.058.28.162.38a.563.563 0 00.784 0 .531.531 0 00.163-.38V20.51l2.994 2.132a.563.563 0 00.867-.306.524.524 0 00-.065-.408.545.545 0 00-.146-.155h-.004z" fill="#01AA92"/><path d="M39.879.753H9.437a.563.563 0 00-.391.157.531.531 0 00-.163.381v18.503c0 3.032.872 6.003 2.516 8.58a16.593 16.593 0 006.789 6.003l6.224 3.001a.573.573 0 00.492 0l6.224-3a16.593 16.593 0 006.79-6.005 15.945 15.945 0 002.515-8.579V1.291a.531.531 0 00-.163-.38.562.562 0 00-.392-.158zm-.555 1.077v4.055H9.992V1.83h29.332zm0 17.964c0 2.831-.813 5.606-2.348 8.011a15.488 15.488 0 01-6.34 5.606l-5.979 2.883-5.977-2.883a15.488 15.488 0 01-6.34-5.606 14.884 14.884 0 01-2.348-8.01V6.957h29.332v12.836z" fill="#01AA92"/><path d="M41.811 4.111l.01 16.955c.001 2.931-.841 5.804-2.43 8.296a16.039 16.039 0 01-6.566 5.804L26.6 38.168l3.26 1.305 5.416-2.612a16.04 16.04 0 006.565-5.804 15.414 15.414 0 002.432-8.296V4.111h-2.463z" fill="#BDE0DC"/></svg>